<svg viewBox="0 0 3014 2403" fill="none" xmlns="http://www.w3.org/2000/svg">
<path fill-rule="evenodd" clip-rule="evenodd" d="M1506.96 2397.44L3008.96 910.442H1995.96L1506.96 2397.44ZM1815.96 1928.44L2745.96 1022.44H2081.96L1815.96 1928.44Z" fill="#D3D3D3"/>
<path fill-rule="evenodd" clip-rule="evenodd" d="M4.96216 910.442L1506.96 2397.44L1007.96 910.442H4.96216ZM1207.96 1928.44L277.962 1022.44H941.962L1207.96 1928.44Z" fill="#D3D3D3"/>
<path d="M1118.96 910.442H1007.96L1506.96 2397.44L1995.96 910.442H1894.96L1506.96 2033.44L1118.96 910.442Z" fill="#D32F2F"/>
<path fill-rule="evenodd" clip-rule="evenodd" d="M518.962 396.442L4.96216 910.442H1007.96H1118.96H1894.96H1995.96H3008.96L2494.96 396.442H518.962ZM562.962 513.442L277.962 793.442H838.962L562.962 513.442ZM708.962 513.442L1007.96 828.442L1316.96 513.442H708.962ZM1207.96 793.442L1506.96 478.442L1815.96 793.442H1207.96ZM1696.96 513.442L1995.96 828.442L2304.96 513.442H1696.96ZM2450.96 513.442L2165.96 793.442H2726.96L2450.96 513.442Z" fill="#D32F2F"/>
<path d="M1506.96 2397.44L3008.96 910.442L2494.96 396.442H518.962L4.96216 910.442L1506.96 2397.44ZM4.96216 910.442H3008.96M4.96216 910.442H1007.96M3008.96 910.442H1995.96M1506.96 2397.44L1995.96 910.442M1506.96 2397.44L1007.96 910.442M1894.96 910.442L1506.96 2033.44L1118.96 910.442M1894.96 910.442H1118.96M1894.96 910.442H1995.96M1118.96 910.442H1007.96M1995.96 910.442H1007.96M277.962 793.442L562.962 513.442L838.962 793.442H277.962ZM1007.96 828.442L708.962 513.442H1316.96L1007.96 828.442ZM1506.96 478.442L1207.96 793.442H1815.96L1506.96 478.442ZM1995.96 828.442L1696.96 513.442H2304.96L1995.96 828.442ZM2165.96 793.442L2450.96 513.442L2726.96 793.442H2165.96ZM277.962 1022.44L1207.96 1928.44L941.962 1022.44H277.962ZM2745.96 1022.44L1815.96 1928.44L2081.96 1022.44H2745.96Z" stroke="#1C1C1E" stroke-width="7"/>
<path d="M2486.02 140.432C2497.35 144.25 2505.79 150.53 2511.33 159.273C2516.87 167.893 2519.64 188.212 2519.64 220.23C2519.64 243.997 2516.93 262.468 2511.52 275.645C2506.1 288.698 2496.74 298.673 2483.44 305.569C2470.14 312.342 2453.08 315.728 2432.27 315.728C2408.63 315.728 2390.03 311.788 2376.49 303.906C2363.07 295.902 2354.2 286.174 2349.89 274.721C2345.7 263.146 2343.61 243.135 2343.61 214.688V191.045H2418.23V239.625C2418.23 252.555 2418.97 260.806 2420.45 264.377C2422.05 267.825 2425.5 269.549 2430.79 269.549C2436.58 269.549 2440.4 267.333 2442.25 262.899C2444.09 258.466 2445.02 246.891 2445.02 228.173V207.484C2445.02 196.032 2443.72 187.658 2441.14 182.363C2438.55 177.068 2434.74 173.62 2429.69 172.019C2424.64 170.295 2414.85 169.309 2400.32 169.063V125.655C2418.05 125.655 2429.01 124.977 2433.2 123.623C2437.38 122.268 2440.4 119.313 2442.25 114.756C2444.09 110.2 2445.02 103.058 2445.02 93.3293V76.7048C2445.02 66.2375 2443.91 59.3414 2441.69 56.0165C2439.6 52.6916 2436.27 51.0292 2431.72 51.0292C2426.55 51.0292 2422.97 52.8148 2421 56.386C2419.16 59.834 2418.23 67.2843 2418.23 78.7367V103.304H2343.61V77.8131C2343.61 49.2436 2350.13 29.9715 2363.19 19.9968C2376.24 9.8989 2396.99 4.84998 2425.44 4.84998C2461.03 4.84998 2485.16 11.8076 2497.85 25.723C2510.53 39.6383 2516.87 58.972 2516.87 83.724C2516.87 100.472 2514.59 112.601 2510.04 120.113C2505.48 127.502 2497.48 134.275 2486.02 140.432Z" fill="#D3D3D3" stroke="#1C1C1E" stroke-width="9.7"/>
<path d="M2224.02 10.7609L2268.54 309.817H2188.93L2185.05 256.065H2157.16L2152.54 309.817H2072L2111.53 10.7609H2224.02ZM2182.83 203.051C2178.89 169.186 2174.95 127.379 2171.01 77.6284C2163.13 134.767 2158.2 176.575 2156.23 203.051H2182.83Z" fill="#D3D3D3" stroke="#1C1C1E" stroke-width="9.7"/>
<path d="M1992.31 10.7609V309.817H1924.34V107.922L1897.18 309.817H1848.97L1820.34 112.54V309.817H1752.37V10.7609H1853.04C1855.99 28.74 1859.13 49.9209 1862.46 74.3035L1873.17 150.407L1890.9 10.7609H1992.31Z" fill="#D3D3D3" stroke="#1C1C1E" stroke-width="9.7"/>
<path d="M1655.13 309.817H1577.18V70.4244H1554.46V239.81C1554.46 262.099 1551.57 278.108 1545.78 287.836C1540.11 297.565 1531.43 303.66 1519.73 306.123C1508.04 308.586 1489.38 309.817 1463.77 309.817H1451.57V258.281C1461.06 258.281 1467.58 257.112 1471.15 254.772C1474.73 252.432 1476.51 244.428 1476.51 230.759V10.5762H1655.13V309.817Z" fill="#D3D3D3" stroke="#1C1C1E" stroke-width="9.7"/>
<path d="M1341.22 10.7609L1385.74 309.817H1306.13L1302.25 256.065H1274.36L1269.74 309.817H1189.2L1228.73 10.7609H1341.22ZM1300.03 203.051C1296.09 169.186 1292.15 127.379 1288.21 77.6284C1280.33 134.767 1275.4 176.575 1273.43 203.051H1300.03Z" fill="#D3D3D3" stroke="#1C1C1E" stroke-width="9.7"/>
<path d="M1115.8 10.7609L1088.64 143.018L1129.65 309.817H1057.61C1048.99 280.016 1041.11 243.75 1033.97 201.019C1032 219.86 1029.29 239.871 1025.84 261.052L1018.45 309.817H942.716L970.793 143.018L942.716 10.7609H1017.9C1019.25 19.0116 1021.96 32.7422 1026.02 51.9528C1029.23 66.607 1031.87 80.0297 1033.97 92.221L1050.59 10.7609H1115.8Z" fill="#D3D3D3" stroke="#1C1C1E" stroke-width="9.7"/>
<path d="M734.651 10.7609H864.322V70.6092H812.417V127.317H860.997V184.21H812.417V249.969H869.494V309.817H734.651V10.7609Z" fill="#D3D3D3" stroke="#1C1C1E" stroke-width="9.7"/>
<path d="M650.716 10.7609V70.6092H604.537V309.817H526.771V70.6092H480.776V10.7609H650.716Z" fill="#D3D3D3" stroke="#1C1C1E" stroke-width="9.7"/>
</svg>
